<?xml version="1.0" encoding="iso-8859-1"?>
<!-- Generator: Adobe Illustrator 19.0.0, SVG Export Plug-In . SVG Version: 6.00 Build 0)  -->
<svg version="1.1" id="Capa_1" xmlns="http://www.w3.org/2000/svg" xmlns:xlink="http://www.w3.org/1999/xlink" x="0px" y="0px"
	 viewBox="0 0 480 480" style="enable-background:new 0 0 480 480;" xml:space="preserve">
<g>
	<g>
		<g>
			<circle cx="192.001" cy="208" r="16"/>
			<path d="M463.825,470.328l-13.128-61.472c-7.327-33.08-36.575-56.682-70.456-56.856h-68.24v-8.8c5.821-1.234,11.29-3.763,16-7.4
				v0.2c0,4.418,3.582,8,8,8c57.438,0,104-46.562,104-104c0-41.985-25.245-79.852-64-96v-8c0-75.111-60.889-136-136-136
				s-136,60.889-136,136v8.096c-53.002,22.042-78.1,82.877-56.058,135.878c16.134,38.796,54.04,64.062,96.058,64.026
				c4.418,0,8-3.582,8-8v-0.208c4.71,3.637,10.179,6.166,16,7.4V352h-68.24c-33.891,0.179-63.144,23.796-70.464,56.888l-13.12,61.44
				c-0.923,4.321,1.831,8.572,6.151,9.495c0.55,0.117,1.11,0.177,1.673,0.177h432c4.418,0,8-3.581,8.001-7.999
				C464.002,471.438,463.942,470.878,463.825,470.328z M113.441,464l6.448-38.68l-15.776-2.64L97.225,464H33.889l11.048-51.744
				c5.7-25.743,28.458-44.114,54.824-44.256h53.304l13.712,96H113.441z M136.001,327.648c-48.398-4.438-84.034-47.27-79.596-95.668
				c3.138-34.217,25.904-63.479,58.3-74.932c3.045-1.062,6.149-1.946,9.296-2.648c0.8-0.2,1.656-0.376,2.488-0.544
				c2.921-0.607,5.872-1.061,8.84-1.36l0.672-0.12V192.8c-0.144,0-0.272,0.096-0.416,0.128c-2.278,0.494-4.508,1.187-6.664,2.072
				c-0.76,0.312-1.456,0.728-2.192,1.088c-1.471,0.684-2.897,1.459-4.272,2.32c-0.8,0.512-1.512,1.088-2.272,1.656
				c-1.196,0.88-2.341,1.825-3.432,2.832c-0.712,0.672-1.376,1.368-2.04,2.088c-0.99,1.072-1.92,2.199-2.784,3.376
				c-0.584,0.8-1.144,1.6-1.672,2.4c-0.788,1.276-1.504,2.596-2.144,3.952c-0.416,0.848-0.848,1.68-1.2,2.56
				c-0.588,1.553-1.082,3.14-1.48,4.752c-0.2,0.8-0.48,1.552-0.64,2.4c-1.024,5.015-1.024,10.185,0,15.2c0.16,0.8,0.44,1.6,0.64,2.4
				c0.398,1.612,0.892,3.199,1.48,4.752c0.352,0.88,0.8,1.712,1.2,2.56c0.64,1.357,1.356,2.676,2.144,3.952
				c0.528,0.8,1.088,1.6,1.672,2.4c0.864,1.177,1.794,2.304,2.784,3.376c0.664,0.72,1.328,1.416,2.04,2.088
				c1.091,1.007,2.236,1.952,3.432,2.832c0.76,0.568,1.48,1.144,2.272,1.656c1.375,0.861,2.801,1.636,4.272,2.32
				c0.736,0.36,1.432,0.8,2.192,1.088c2.156,0.885,4.386,1.578,6.664,2.072c0.144,0,0.272,0.096,0.416,0.128V327.648z
				 M136.025,254.592c-0.256-0.096-0.528-0.144-0.8-0.248c-0.44-0.232-0.872-0.44-1.296-0.632c-0.888-0.418-1.751-0.889-2.584-1.408
				c-0.392-0.24-0.8-0.48-1.16-0.744c-0.943-0.674-1.838-1.412-2.68-2.208c-0.176-0.168-0.376-0.312-0.544-0.48
				c-0.977-0.989-1.869-2.06-2.664-3.2c-0.216-0.32-0.4-0.672-0.608-1c-0.549-0.871-1.04-1.777-1.472-2.712
				c-0.2-0.432-0.376-0.88-0.552-1.328c-0.359-0.944-0.661-1.908-0.904-2.888c-0.104-0.44-0.232-0.872-0.312-1.312
				c-0.595-2.903-0.595-5.897,0-8.8c0.08-0.448,0.208-0.872,0.32-1.312c0.237-0.981,0.536-1.945,0.896-2.888
				c0.176-0.448,0.352-0.896,0.552-1.328c0.432-0.935,0.923-1.841,1.472-2.712c0.208-0.328,0.392-0.68,0.608-1
				c0.795-1.14,1.687-2.211,2.664-3.2c0.168-0.168,0.368-0.312,0.544-0.48c0.842-0.796,1.737-1.534,2.68-2.208
				c0.376-0.264,0.8-0.504,1.16-0.744c0.829-0.52,1.689-0.987,2.576-1.4c0.432-0.2,0.864-0.408,1.304-0.584
				c0.248-0.096,0.52-0.144,0.8-0.24V254.592z M144.001,136c-3.635,0.021-7.267,0.232-10.88,0.632
				c-1.04,0.104-2.072,0.256-3.104,0.392c-2.747,0.379-5.459,0.859-8.136,1.44c-0.624,0.136-1.264,0.184-1.88,0.336V136
				c0-66.274,53.726-120,120-120s120,53.726,120,120v13.52c0.001,3.412,2.166,6.448,5.392,7.56
				c35.188,12.356,58.703,45.626,58.608,82.92c-0.054,45.481-34.712,83.449-80,87.64V271.2c1.429-0.313,2.839-0.706,4.224-1.176
				c0.336-0.104,0.696-0.168,1.032-0.28c1.926-0.68,3.798-1.504,5.6-2.464c0.496-0.264,0.944-0.592,1.432-0.872
				c1.262-0.736,2.485-1.537,3.664-2.4c0.584-0.44,1.128-0.928,1.696-1.392c0.992-0.84,1.952-1.704,2.864-2.632
				c0.544-0.552,1.064-1.12,1.6-1.704c0.848-0.968,1.6-1.984,2.4-3.032c0.448-0.624,0.896-1.232,1.304-1.88
				c0.738-1.192,1.411-2.423,2.016-3.688c0.296-0.592,0.624-1.152,0.888-1.768c0.843-1.923,1.531-3.911,2.056-5.944
				c1.087-4.282-1.503-8.635-5.786-9.722c-0.663-0.168-1.346-0.251-2.03-0.246h-14.96c-4.848,0-9.888-0.2-15.4-0.616
				c-62.562-4.908-119.21-38.844-153.056-91.688c-1.47-2.303-4.012-3.696-6.744-3.696H144.001z M344.001,254.504v-6.672
				c2.736,0.112,5.392,0.168,8,0.168h1.904c-1.243,1.369-2.642,2.588-4.168,3.632c-0.488,0.336-1.016,0.592-1.528,0.896
				c-1.087,0.661-2.227,1.231-3.408,1.704C344.537,254.336,344.265,254.408,344.001,254.504z M152.001,304V152h20.472
				c35.429,52.842,92.309,87.425,155.528,94.56V304c0,13.255-10.745,24-24,24h-128C162.746,328,152.001,317.255,152.001,304z
				 M296.001,344v12.688l-56,56l-56-56V344H296.001z M297.089,464H182.937l-13.712-96h3.464l61.656,61.656
				c3.124,3.123,8.188,3.123,11.312,0L307.313,368h3.808L297.089,464z M382.777,464l-6.888-41.32l-15.776,2.64l6.448,38.68h-53.304
				l14.032-96h52.952c26.357,0.14,49.109,18.5,54.816,44.232L446.113,464H382.777z"/>
		</g>
	</g>
</g>
<g>
</g>
<g>
</g>
<g>
</g>
<g>
</g>
<g>
</g>
<g>
</g>
<g>
</g>
<g>
</g>
<g>
</g>
<g>
</g>
<g>
</g>
<g>
</g>
<g>
</g>
<g>
</g>
<g>
</g>
</svg>
